Coordinates
version=1
nRows=24
nColumns=22
inDegrees=yes

Units are S.I. units (second, meters, Newtons, ...)
If the header above contains a line with 'inDegrees', this indicates whether rotational values are in degrees (yes) or radians (no).

endheader
time	pelvis_tilt	pelvis_list	pelvis_rotation	pelvis_tx	pelvis_ty	pelvis_tz	hip_flexion_r	hip_adduction_r	hip_rotation_r	knee_angle_r	ankle_angle_r	subtalar_angle_r	hip_flexion_l	hip_adduction_l	hip_rotation_l	knee_angle_l	ankle_angle_l	subtalar_angle_l	lumbar_extension	lumbar_bending	lumbar_rotation
      3.06000000	      2.51031815	      4.72246172	    -27.32365697	     -0.16452563	      1.05973508	     -0.48809671	     -3.29919332	     -1.56455298	     11.61959532	    -39.78389290	      3.08752323	      5.76289326	     16.32281419	      2.81987019	      9.09944788	    -18.87091989	      6.13035475	      6.95132483	     -3.50177057	     -7.55479260	     -0.12312151
      3.07000000	      2.56084498	      4.81308718	    -28.03110398	     -0.15529543	      1.06060849	     -0.48524209	     -2.11006804	     -1.73222470	     11.64290079	    -42.13285885	      0.71275942	      6.96976343	     15.72354184	      2.90388924	      8.46150327	    -18.83493479	      6.44619968	      6.31122110	     -3.44914789	     -7.62673369	     -0.15544828
      3.08000000	      2.64939908	      4.94111936	    -28.75458877	     -0.14631489	      1.06137729	     -0.48237321	     -0.83536835	     -1.96265141	     11.59981811	    -44.52837306	     -1.51558234	      8.04086436	     15.08731374	      3.02602199	      7.71124971	    -18.73167238	      6.82027208	      5.80175337	     -3.43794677	     -7.75184061	     -0.23377808
      3.09000000	      2.78135686	      5.10252360	    -29.46565150	     -0.13756455	      1.06207029	     -0.47953623	      0.49663942	     -2.26028338	     11.47654469	    -46.92412357	     -3.48323704	      8.95043142	     14.41535168	      3.20107054	      6.92430141	    -18.57125744	      7.21722087	      5.41513306	     -3.47476797	     -7.92720212	     -0.39091063
      3.10000000	      2.94875351	      5.27306871	    -30.12992923	     -0.12901558	      1.06271859	     -0.47680803	      1.86021740	     -2.61179150	     11.23815324	    -49.27190627	     -5.09200357	      9.70514250	     13.72065761	      3.42288395	      6.18549126	    -18.38474991	      7.60701530	      5.11939122	     -3.56804839	     -8.12299453	     -0.61967174
      3.11000000	      3.19294593	      5.44188002	    -30.75905013	     -0.12063197	      1.06343385	     -0.47413472	      3.17817660	     -3.02464818	     10.92832036	    -51.50761783	     -6.27883634	     10.05863449	     12.94504218	      3.70349942	      5.51404900	    -18.14723585	      7.94932568	      4.96620831	     -3.75583669	     -8.35373028	     -0.93989087
      3.12000000	      3.38346641	      5.60507577	    -31.30647150	     -0.11241748	      1.06403503	     -0.47159806	      4.55652414	     -3.42367494	     10.53610201	    -53.61128942	     -6.92733904	     10.41167410	     12.26643268	      3.97838467	      4.89307533	    -17.96540701	      8.33833276	      4.73056911	     -3.91200199	     -8.53894358	     -1.37057100
      3.13000000	      3.63690526	      5.72094719	    -31.81129563	     -0.10428216	      1.06480787	     -0.46906474	      5.82519637	     -3.82882789	     10.09433284	    -55.50516209	     -7.14646630	     10.37173348	     11.47473592	      4.27331173	      4.41823033	    -17.71079820	      8.67387155	      4.60421064	     -4.15874755	     -8.71238392	     -1.85225115
      3.14000000	      3.86112571	      5.80772501	    -32.26878059	     -0.09624447	      1.06560279	     -0.46655139	      7.07653423	     -4.20119083	      9.60517508	    -57.18742402	     -6.92435713	     10.05151051	     10.70603160	      4.54684985	      3.98904462	    -17.45690964	      8.96903452	      4.42522041	     -4.39105567	     -8.83758435	     -2.37415106
      3.15000000	      4.06035303	      5.81146605	    -32.67253577	     -0.08828868	      1.06649285	     -0.46401495	      8.25365658	     -4.48799510	      9.04339627	    -58.61896706	     -6.44199961	      9.22598325	      9.91940952	      4.75153378	      3.62188941	    -17.20377266	      9.25600667	      4.14545522	     -4.64551010	     -8.86767983	     -2.92422140
      3.16000000	      4.27417478	      5.75322072	    -33.05034993	     -0.08042705	      1.06751408	     -0.46140359	      9.32887024	     -4.71982043	      8.45537390	    -59.80309439	     -5.72946273	      8.35249526	      9.06743155	      4.92127169	      3.29916804	    -16.91144384	      9.49719619	      3.91149840	     -4.94563614	     -8.85344051	     -3.47781107
      3.17000000	      4.45626340	      5.61711559	    -33.40557079	     -0.07268267	      1.06861406	     -0.45868079	     10.32816512	     -4.84614606	      7.83479266	    -60.73359617	     -4.91028818	      7.37872503	      8.18153156	      5.01092827	      3.02073137	    -16.58374733	      9.72713041	      3.65451443	     -5.25398109	     -8.75548543	     -4.00684039
      3.18000000	      4.62551126	      5.44182363	    -33.74032697	     -0.06506731	      1.06975883	     -0.45585707	     11.26455240	     -4.91752286	      7.17471648	    -61.43096946	     -4.08424072	      6.45979342	      7.26898408	      5.06260558	      2.76933231	    -16.22141429	      9.92303154	      3.40903611	     -5.56937730	     -8.62573269	     -4.51666813
      3.19000000	      4.74041475	      5.17290859	    -34.06188380	     -0.05763134	      1.07091870	     -0.45288182	     12.13206143	     -4.84503991	      6.48045820	    -61.88366261	     -3.30774082	      5.56198323	      6.35733120	      4.99340244	      2.50098223	    -15.87123608	     10.15329223	      3.15463219	     -5.88949848	     -8.39059791	     -4.97948492
      3.20000000	      4.81586991	      4.87348584	    -34.38449326	     -0.05038024	      1.07203069	     -0.44975180	     12.96604952	     -4.69276817	      5.77526199	    -62.12242384	     -2.58360527	      4.77874218	      5.46099147	      4.86754595	      2.22742311	    -15.51344433	     10.36863899	      2.93255311	     -6.18838853	     -8.12085854	     -5.39890697
      3.21000000	      4.84772412	      4.54733433	    -34.71204359	     -0.04331465	      1.07305549	     -0.44644898	     13.77282642	     -4.45996347	      5.06258813	    -62.15654700	     -1.90747421	      4.10916537	      4.58958002	      4.68346024	      1.93972705	    -15.15884913	     10.59399082	      2.74341236	     -6.46020271	     -7.82181765	     -5.77367193
      3.22000000	      4.83891720	      4.20809400	    -35.05024924	     -0.03641715	      1.07396480	     -0.44298723	     14.55660817	     -4.16760426	      4.34311431	    -61.99216800	     -1.24113379	      3.54286413	      3.75093868	      4.45535253	      1.62632370	    -14.81317810	     10.83751011	      2.58599281	     -6.70151685	     -7.50274603	     -6.09906986
      3.23000000	      4.79712897	      3.86503864	    -35.40125851	     -0.02966801	      1.07473833	     -0.43936968	     15.31719854	     -3.83604995	      3.61228022	    -61.64049584	     -0.54338716	      3.05072619	      2.94175195	      4.19710431	      1.28698014	    -14.47566938	     11.09537425	      2.45512001	     -6.91315949	     -7.17750417	     -6.37828257
      3.24000000	      4.72642864	      3.53453219	    -35.76717067	     -0.02305827	      1.07535398	     -0.43563316	     16.06257199	     -3.48949444	      2.87235157	    -61.10981999	      0.22396886	      2.63781948	      2.16679789	      3.92842845	      0.92587080	    -14.14217117	     11.36153750	      2.35109036	     -7.09172747	     -6.85734233	     -6.62623745
      3.25000000	      4.64969612	      3.22008482	    -36.14240686	     -0.01656738	      1.07583216	     -0.43180015	     16.77371796	     -3.15999660	      2.10314384	    -60.40710213	      1.09391617	      2.23815535	      1.40084948	      3.66966546	      0.56507889	    -13.79904208	     11.60003755	      2.27093176	     -7.25898857	     -6.55896526	     -6.84090753
      3.26000000	      4.51897851	      2.94273942	    -36.51750353	     -0.01023753	      1.07606095	     -0.42793838	     17.52158570	     -2.83898130	      1.30498982	    -59.56025930	      2.04390860	      2.07194690	      0.74006064	      3.40566063	      0.15677477	    -13.51861864	     11.93527711	      2.20354761	     -7.36582076	     -6.26275522	     -7.05714543
      3.27000000	      4.39365023	      2.68570966	    -36.89868205	     -0.00400861	      1.07616166	     -0.42401150	     18.22681928	     -2.55428065	      0.47828325	    -58.55526838	      3.08690948	      1.92261756	      0.07843399	      3.16412632	     -0.23957806	    -13.22398881	     12.24282978	      2.15120370	     -7.47117814	     -5.99133561	     -7.28375700
      3.28000000	      4.26048303	      2.47039871	    -37.28282436	      0.00209428	      1.07607249	     -0.42007201	     18.93325982	     -2.32736884	     -0.39529609	    -57.42989829	      4.19702404	      1.84816471	     -0.53348574	      2.95595714	     -0.63971692	    -12.95633384	     12.56118075	      2.10341029	     -7.55675311	     -5.75395676	     -7.48673610
      3.29000000	      4.12622894	      2.28282734	    -37.67687478	      0.00813368	      1.07584131	     -0.41605819	     19.60667436	     -2.13761891	     -1.28783067	    -56.16740435	      5.31854222	      1.80632296	     -1.12933517	      2.77357713	     -1.04133927	    -12.69066808	     12.87739730	      2.05664822	     -7.62183390	     -5.53832171	     -7.70743230
